<svg width="343" height="345" viewBox="0 0 343 345" fill="none" xmlns="http://www.w3.org/2000/svg">
<ellipse cx="171.5" cy="172.5" rx="171.5" ry="172.5" fill="#C4C4C4"/>
<path d="M175.8 281C173.8 281 172.1 280.4 170.7 279.2C169.5 277.8 168.9 276.1 168.9 274.1V106.1L119.1 144.5C117.7 145.7 116.2 146.3 114.6 146.3C112.8 146.3 111.1 145.3 109.5 143.3L101.7 133.4C100.7 132 100.2 130.6 100.2 129.2C100.2 126.8 101.2 124.9 103.2 123.5L168.6 73.1C170.8 71.7 173.4 71 176.4 71H191.7C193.7 71 195.3 71.7 196.5 73.1C197.9 74.3 198.6 75.9 198.6 77.9V274.1C198.6 276.1 197.9 277.8 196.5 279.2C195.3 280.4 193.7 281 191.7 281H175.8Z" fill="white"/>
</svg>
