<svg width="437" height="427" viewBox="0 0 437 427" fill="none" xmlns="http://www.w3.org/2000/svg">
<ellipse cx="218.5" cy="213.5" rx="218.5" ry="213.5" fill="#C4C4C4"/>
<path d="M152.6 317C150.6 317 148.9 316.4 147.5 315.2C146.3 313.8 145.7 312.1 145.7 310.1V300.5C145.7 295.9 148.2 291.5 153.2 287.3L216.8 223.7C232.2 210.9 242.8 200.5 248.6 192.5C254.4 184.3 257.3 175.7 257.3 166.7C257.3 155.1 254 146 247.4 139.4C241 132.8 231.6 129.5 219.2 129.5C207.6 129.5 198.3 133 191.3 140C184.3 146.8 180 155.9 178.4 167.3C178 169.7 177 171.5 175.4 172.7C174 173.7 172.4 174.2 170.6 174.2H155C153.2 174.2 151.7 173.7 150.5 172.7C149.3 171.5 148.7 170.1 148.7 168.5C149.1 157.7 152 147.4 157.4 137.6C162.8 127.6 170.7 119.5 181.1 113.3C191.7 106.9 204.4 103.7 219.2 103.7C241.8 103.7 258.8 109.6 270.2 121.4C281.8 133 287.6 147.8 287.6 165.8C287.6 178.4 284.4 189.8 278 200C271.8 210 262.1 220.8 248.9 232.4L191.3 290.9H284.9C287.1 290.9 288.8 291.6 290 293C291.4 294.2 292.1 295.8 292.1 297.8V310.1C292.1 312.1 291.4 313.8 290 315.2C288.6 316.4 286.9 317 284.9 317H152.6Z" fill="white"/>
</svg>
