<svg width="437" height="427" viewBox="0 0 437 427" fill="none" xmlns="http://www.w3.org/2000/svg">
<ellipse cx="218.5" cy="213.5" rx="218.5" ry="213.5" fill="#C4C4C4"/>
<path d="M216.4 333C200.6 333 186.9 330.5 175.3 325.5C163.9 320.3 155.2 313.6 149.2 305.4C143.4 297.2 140.3 288.6 139.9 279.6C139.9 277.8 140.5 276.4 141.7 275.4C142.9 274.2 144.4 273.6 146.2 273.6H160.9C165.1 273.6 167.9 275.8 169.3 280.2C171.9 290.2 177.5 297.3 186.1 301.5C194.7 305.5 204.8 307.5 216.4 307.5C230.6 307.5 241.9 304.2 250.3 297.6C258.7 290.8 262.9 281.1 262.9 268.5C262.9 244.3 248.2 232.2 218.8 232.2H190.3C188.3 232.2 186.6 231.6 185.2 230.4C184 229 183.4 227.3 183.4 225.3V217.2C183.4 214.4 184.5 211.7 186.7 209.1L244.9 145.5H156.4C154.4 145.5 152.7 144.9 151.3 143.7C150.1 142.3 149.5 140.6 149.5 138.6V127.2C149.5 125.2 150.1 123.5 151.3 122.1C152.7 120.7 154.4 120 156.4 120H276.1C278.3 120 280 120.7 281.2 122.1C282.6 123.3 283.3 125 283.3 127.2V138C283.3 140.4 282.2 142.7 280 144.9L222.1 209.4L226.9 209.7C247.3 210.3 263.4 215.6 275.2 225.6C287 235.6 292.9 250.2 292.9 269.4C292.9 282.4 289.6 293.7 283 303.3C276.4 312.9 267.3 320.3 255.7 325.5C244.1 330.5 231 333 216.4 333Z" fill="white"/>
</svg>
