<svg width="168" height="174" viewBox="0 0 168 174" fill="none" xmlns="http://www.w3.org/2000/svg">
<path d="M83.9976 87C97.5291 87 108.499 75.6391 108.499 61.6248C108.499 47.6105 97.5291 36.2497 83.9976 36.2497C70.4661 36.2497 59.4967 47.6105 59.4967 61.6248C59.4967 75.6391 70.4661 87 83.9976 87Z" fill="#FB5252"/>
<path d="M46.3758 104.626C39.355 108.396 34.997 115.823 34.997 124.012V127.328C34.997 133.074 39.4849 137.75 44.9983 137.75H122.999C128.512 137.75 133 133.074 133 127.328V124.012C133 115.823 128.642 108.396 121.621 104.626C112.81 99.8931 99.1269 94.2504 83.9985 94.2504C68.8702 94.2504 55.1875 99.8931 46.3758 104.626Z" fill="#FB5252"/>
<path d="M106.919 3.29581L106.565 3.24143C106.462 3.20099 106.381 3.12453 106.273 3.09394C99.0576 1.04094 91.5617 0 83.9975 0C82.5927 0 81.3212 0.87102 80.7742 2.21239C80.2272 3.55409 80.5074 5.10446 81.4853 6.1488L100.008 25.9342C100.678 26.6492 101.587 27.0353 102.52 27.0353C102.865 27.0353 103.211 26.9823 103.549 26.8759C104.807 26.4722 105.743 25.3748 105.969 24.0331L106.892 18.5388C140.866 30.7627 161.922 68.916 151.179 107.426C144.305 132.072 124.612 150.667 100.695 157.345L98.8827 157.851C97.016 158.373 95.9111 160.363 96.4145 162.296L98.2379 169.296C98.7413 171.229 100.663 172.373 102.529 171.851L103.388 171.611C134.767 162.838 159.99 137.147 166.355 104.137C175.091 58.8328 148.126 15.415 106.919 3.29581Z" fill="#FB5252"/>
<path d="M67.9928 148.066C67.3228 147.351 66.4135 146.965 65.4806 146.965C65.1354 146.965 64.7902 147.018 64.4519 147.124C63.1941 147.528 62.2573 148.625 62.0319 149.967L61.1085 155.461C27.1346 143.237 6.07879 105.084 16.821 66.5736C23.6958 41.9271 43.3885 23.3325 67.3054 16.6542L69.1177 16.1485C70.9844 15.6272 72.0893 13.6374 71.5859 11.7041L69.7624 4.70395C69.2588 2.77092 67.3372 1.62666 65.4711 2.14832L64.6123 2.38859C33.2334 11.162 8.0102 36.8525 1.64469 69.8629C-7.09062 115.167 19.8743 158.585 61.0813 170.704L61.4353 170.759C61.5384 170.799 61.6191 170.875 61.7271 170.906C68.9428 172.959 76.4384 174 84.0026 174C85.4073 174 86.6788 173.129 87.2258 171.788C87.7728 170.446 87.4926 168.896 86.5148 167.851L67.9928 148.066Z" fill="#FB5252"/>
</svg>
