<svg width="532" height="328" viewBox="0 0 532 328" fill="none" xmlns="http://www.w3.org/2000/svg">
<path d="M507.817 328H24.1821C10.8821 328 0 316.646 0 302.769V25.231C0 11.3541 10.8821 0 24.1821 0H507.818C521.118 0 532 11.3541 532 25.231V302.769C531.999 316.646 521.117 328 507.817 328Z" fill="#FFE600"/>
<path d="M468.4 293H63.5996C63.5996 267.2 40.83 246.091 13 246.091V81.9088C40.83 81.9088 63.5996 60.8001 63.5996 35H468.4C468.4 60.8001 491.17 81.9088 519 81.9088V246.091C491.17 246.091 468.4 267.2 468.4 293Z" fill="#FFEE5B"/>
<path d="M272.719 248.485C321.688 248.485 361.386 209.547 361.386 161.515C361.386 113.483 321.688 74.5455 272.719 74.5455C223.75 74.5455 184.052 113.483 184.052 161.515C184.052 209.547 223.75 248.485 272.719 248.485Z" fill="white"/>
<path d="M127.627 195.022C140.982 195.022 151.809 183.677 151.809 169.681C151.809 155.686 140.982 144.341 127.627 144.341C114.271 144.341 103.445 155.686 103.445 169.681C103.445 183.677 114.271 195.022 127.627 195.022Z" fill="#FFE500"/>
<path d="M417.807 195.022C431.162 195.022 441.989 183.677 441.989 169.681C441.989 155.686 431.162 144.341 417.807 144.341C404.451 144.341 393.625 155.686 393.625 169.681C393.625 183.677 404.451 195.022 417.807 195.022Z" fill="#FFE500"/>
<path d="M281 155.333H262.999C257.599 155.333 254 151.866 254 146.666C254 141.466 257.6 138 262.999 138H290C295.4 138 298.999 134.533 298.999 129.333C298.999 124.133 295.399 120.667 290 120.667H281C281 115.466 277.399 112 272 112C266.6 112 263 115.467 263 120.667C247.7 120.667 236 131.933 236 146.667C236 161.401 247.7 172.667 263 172.667H281.001C286.401 172.667 290 176.134 290 181.334C290 186.534 286.4 190 281.001 190H254C248.6 190 245.001 193.467 245.001 198.667C245.001 203.867 248.601 207.333 254 207.333H263C263 212.534 266.601 216 272 216C277.4 216 281 212.533 281 207.333C296.3 207.333 308 196.067 308 181.333C308 166.599 296.3 155.333 281 155.333Z" fill="#FFE500"/>
</svg>
