<svg width="142" height="114" viewBox="0 0 142 114" fill="none" xmlns="http://www.w3.org/2000/svg">
<path d="M101.446 25.8088H100.437C100.238 25.8088 100.076 25.9648 100.076 26.1573V39.2512C100.076 39.4437 100.238 39.5998 100.437 39.5998H101.446C101.645 39.5998 101.806 39.4437 101.806 39.2512V26.1573C101.806 25.9648 101.645 25.8088 101.446 25.8088Z" fill="#3F3D56"/>
<path d="M94.8751 0H49.2815C45.8936 0 43.1472 2.65707 43.1472 5.93474V107.837C43.1472 111.114 45.8936 113.772 49.2815 113.772H94.8751C98.263 113.772 101.009 111.114 101.009 107.837V5.93474C101.009 2.65707 98.263 0 94.8751 0Z" fill="#3F3D56"/>
<path d="M92.9559 2.96346H86.3185V3.73593C86.3185 4.21677 86.2206 4.69289 86.0303 5.1371C85.8401 5.58131 85.5612 5.9849 85.2097 6.32481C84.8581 6.66472 84.4408 6.93429 83.9816 7.11812C83.5224 7.30195 83.0302 7.39643 82.5332 7.39617H61.4245C60.9275 7.39643 60.4353 7.30195 59.9761 7.11812C59.5168 6.93429 59.0995 6.66472 58.748 6.32481C58.3964 5.9849 58.1176 5.58131 57.9273 5.1371C57.7371 4.69289 57.6391 4.21677 57.6391 3.73593V2.96346H51.4246C50.2059 2.96346 49.037 3.43187 48.1752 4.26565C47.3134 5.09942 46.8292 6.23027 46.8292 7.40941V106.37C46.8292 107.549 47.3134 108.68 48.1752 109.514C49.037 110.348 50.2059 110.816 51.4246 110.816H92.9559C94.1747 110.816 95.3435 110.348 96.2054 109.514C97.0672 108.68 97.5513 107.549 97.5513 106.37V7.41702C97.5524 6.83253 97.4343 6.25358 97.2038 5.71329C96.9733 5.173 96.635 4.68199 96.2081 4.26833C95.7813 3.85468 95.2744 3.52652 94.7163 3.30261C94.1583 3.0787 93.56 2.96345 92.9559 2.96346Z" fill="white"/>
<path d="M73.9682 3.39767H67.1059C66.7697 3.39767 66.4971 3.66141 66.4971 3.98673V4.39512C66.4971 4.72045 66.7697 4.98418 67.1059 4.98418H73.9682C74.3044 4.98418 74.577 4.72045 74.577 4.39512V3.98673C74.577 3.66141 74.3044 3.39767 73.9682 3.39767Z" fill="#E6E8EC"/>
<path d="M76.7303 5.09197C77.2446 5.09197 77.6615 4.68861 77.6615 4.19103C77.6615 3.69345 77.2446 3.29009 76.7303 3.29009C76.216 3.29009 75.7991 3.69345 75.7991 4.19103C75.7991 4.68861 76.216 5.09197 76.7303 5.09197Z" fill="#E6E8EC"/>
<path d="M72.4317 68.8724C78.4769 68.8724 83.3775 64.1312 83.3775 58.2826C83.3775 52.434 78.4769 47.6927 72.4317 47.6927C66.3865 47.6927 61.4858 52.434 61.4858 58.2826C61.4858 64.1312 66.3865 68.8724 72.4317 68.8724Z" fill="white"/>
<path d="M86.8285 56.8038C86.8284 59.6032 85.9702 62.3396 84.3627 64.6671C82.7551 66.9947 80.4702 68.8087 77.7969 69.8799C75.1237 70.9511 72.1822 71.2313 69.3444 70.685C66.5065 70.1388 63.8998 68.7907 61.8539 66.8112C59.808 64.8317 58.4147 62.3097 57.8504 59.5642C57.286 56.8186 57.5758 53.9728 58.6831 51.3865C59.7905 48.8003 61.6657 46.5899 64.0715 45.0347C66.4774 43.4796 69.3059 42.6495 72.1994 42.6496C74.1205 42.6497 76.0229 43.0159 77.7978 43.7272C79.5727 44.4385 81.1854 45.4812 82.5439 46.7955C83.9023 48.1098 84.9799 49.6702 85.715 51.3874C86.4502 53.1046 86.8285 54.9451 86.8285 56.8038ZM70.5082 64.2957L81.3603 53.7966C81.4481 53.7118 81.5178 53.6112 81.5654 53.5003C81.6129 53.3895 81.6374 53.2707 81.6374 53.1507C81.6374 53.0307 81.6129 52.9118 81.5654 52.801C81.5178 52.6902 81.4481 52.5895 81.3603 52.5047L80.0251 51.2224C79.9376 51.1374 79.8337 51.0701 79.7193 51.0241C79.6049 50.9781 79.4823 50.9545 79.3584 50.9545C79.2345 50.9545 79.1118 50.9781 78.9974 51.0241C78.883 51.0701 78.7791 51.1374 78.6917 51.2224L69.8407 59.7857L65.708 55.7779C65.5306 55.6072 65.2905 55.5114 65.0403 55.5114C64.7901 55.5114 64.5501 55.6072 64.3727 55.7779L63.0375 57.0773C62.861 57.249 62.762 57.4812 62.762 57.7233C62.762 57.9653 62.861 58.1975 63.0375 58.3692L69.1733 64.3033C69.2609 64.3883 69.3649 64.4557 69.4795 64.5017C69.5941 64.5477 69.7169 64.5714 69.8409 64.5714C69.965 64.5714 70.0878 64.5477 70.2023 64.5017C70.3169 64.4557 70.421 64.3883 70.5086 64.3033L70.5082 64.2957Z" fill="#FF0202"/>
<path d="M44.9588 22.4295H44.8073C44.6083 22.4295 44.447 22.5856 44.447 22.7781V26.1622C44.447 26.3547 44.6083 26.5108 44.8073 26.5108H44.9588C45.1578 26.5108 45.3191 26.3547 45.3191 26.1622V22.7781C45.3191 22.5856 45.1578 22.4295 44.9588 22.4295Z" fill="#3F3D56"/>
<path d="M45.0378 29.9026H44.7757C44.5767 29.9026 44.4154 30.0587 44.4154 30.2512V36.6572C44.4154 36.8497 44.5767 37.0057 44.7757 37.0057H45.0378C45.2368 37.0057 45.3981 36.8497 45.3981 36.6572V30.2512C45.3981 30.0587 45.2368 29.9026 45.0378 29.9026Z" fill="#3F3D56"/>
<path d="M45.0062 39.4912H44.7914C44.5925 39.4912 44.4312 39.6473 44.4312 39.8398V46.3068C44.4312 46.4993 44.5925 46.6554 44.7914 46.6554H45.0062C45.2052 46.6554 45.3665 46.4993 45.3665 46.3068V39.8398C45.3665 39.6473 45.2052 39.4912 45.0062 39.4912Z" fill="#3F3D56"/>
<path d="M32.8411 58.4356C32.8661 58.4592 32.8982 58.4742 32.9327 58.4785C32.9671 58.4828 33.0021 58.4762 33.0324 58.4596C32.9678 58.4605 32.9033 58.4525 32.8411 58.4356Z" fill="url(#paint0_linear)"/>
<path d="M40.0724 61.1722L39.8836 62.1671L39.7379 62.9281L39.4729 64.3203L36.9039 66.0604C36.9039 66.0604 36.6723 65.8686 36.2903 65.5663C35.2375 64.7276 33.0247 63.0198 31.3998 62.103C30.9818 61.8453 30.5296 61.6437 30.0555 61.5037L40.0724 61.1722Z" fill="#FEB9B9"/>
<path d="M38.1877 61.9124C38.1877 61.9124 41.1831 62.4099 41.3585 61.1722C41.534 59.9346 39.8167 59.2658 38.3614 59.1825C36.9061 59.0993 28.1715 59.68 28.1715 59.68C28.1715 59.68 26.6308 61.668 32.1952 62.0007L38.1877 61.9124Z" fill="#3F3D56"/>
<path d="M44.7382 21.073H29.0682V39.0498H44.7382V21.073Z" fill="#2F2E41"/>
<path opacity="0.1" d="M44.7382 21.1546H29.0682V39.1314H44.7382V21.1546Z" fill="black"/>
<path d="M10.7031 51.8468C10.4451 51.9097 10.1153 52.1513 9.74858 52.5004C8.16932 54.0131 5.90739 57.563 5.90739 57.563C3.01553 54.2303 6.2156 51.5972 7.57964 50.6923C7.91129 50.4733 8.13407 50.3527 8.13407 50.3527L10.7031 51.8468Z" fill="#FEB9B9"/>
<path d="M39.9003 26.7466C39.9003 26.7466 40.6713 31.9654 43.3256 33.208C45.9798 34.4507 39.9003 36.7731 39.9003 36.7731L31.5951 33.7886C31.5951 33.7886 36.3049 32.2969 35.3625 27.906L39.9003 26.7466Z" fill="#FEB9B9"/>
<path d="M30.9951 58.1436L30.8073 59.1351L30.6547 59.899L30.3897 61.2912L27.8207 63.0296C27.8207 63.0296 27.5891 62.8395 27.2071 62.5373C26.1543 61.6986 23.9416 59.9908 22.3142 59.0741C21.8964 58.816 21.4442 58.6144 20.97 58.4748L30.9951 58.1436Z" fill="#FEB9B9"/>
<path d="M28.7728 59.3662C28.7728 59.3662 31.4611 59.3847 31.6228 58.1435C31.7845 56.9024 30.1577 56.2371 28.7728 56.1538C27.3878 56.0706 18.9729 56.6899 18.9729 56.6899C18.9729 56.6899 17.7791 59.034 23.0721 59.3661L28.7728 59.3662Z" fill="#2F2E41"/>
<path d="M47.6213 78.8638C47.5038 78.8078 47.3861 78.7501 47.2703 78.6941L46.9544 78.3087L42.8115 73.2259V73.3142C42.7835 74.163 42.4852 80.8893 40.1583 81.5106C37.6753 82.1727 34.6799 82.3391 33.3145 77.8658C31.949 73.3924 29.4541 63.617 26.892 63.0365L30.7033 60.013C30.7033 60.013 33.2267 62.8685 34.2548 65.6017C34.2163 65.432 32.4737 57.5547 33.9038 56.1609H46.4075C46.4075 56.1609 48.3378 61.4798 49.6608 64.1146C50.6908 66.1604 52.2367 70.997 53.2322 74.2702C54.2175 77.5023 50.7553 80.3561 47.6213 78.8638Z" fill="#3F3D56"/>
<path opacity="0.1" d="M47.2651 57.6462C45.3348 58.7514 36.8611 58.3015 34.1043 58.1215L33.3533 58.0689C33.2725 58.0689 33.3655 58.0247 33.3655 58.0247L33.4428 57.2727L35.4977 52.2203L46.5 46.0475C46.2771 46.6977 46.2034 47.6926 46.221 48.8317C46.2719 52.492 47.2651 57.6462 47.2651 57.6462Z" fill="black"/>
<path d="M47.2651 57.3966C45.3348 58.5018 36.861 58.0519 34.1043 57.872L33.3532 57.821L33.2286 57.8108L33.3655 57.7768L34.0428 57.6071L35.4975 51.9742L46.4998 45.8031C46.277 46.4533 46.2032 47.4482 46.2209 48.5874C46.2718 52.2441 47.2651 57.3966 47.2651 57.3966Z" fill="#EFEFEF"/>
<path opacity="0.1" d="M46.214 48.5839C43.9766 49.083 39.0528 50.5474 37.1611 54.0843C35.8995 56.4391 34.8378 57.4491 34.0973 57.8718L33.3462 57.8208C33.3511 57.8064 33.3552 57.7916 33.3585 57.7767L34.0358 57.607L35.4904 51.9741L46.4928 45.8031C46.2725 46.4498 46.1964 47.4447 46.214 48.5839Z" fill="black"/>
<path opacity="0.1" d="M8.13402 50.3564L10.703 51.847C10.445 51.9099 10.1153 52.1514 9.74853 52.5006C9.5344 51.8962 8.19097 51.0525 7.57959 50.6926C7.91108 50.4769 8.13402 50.3564 8.13402 50.3564Z" fill="black"/>
<path opacity="0.1" d="M32.8883 57.918C32.8602 57.9323 32.8281 57.9377 32.7967 57.9334C32.7652 57.9291 32.7359 57.9154 32.7129 57.8941C32.7699 57.9104 32.829 57.9184 32.8883 57.918Z" fill="black"/>
<path d="M38.702 32.877C38.702 32.877 36.3893 33.1248 34.7627 31.468C34.7627 31.468 27.9189 33.3745 25.6011 37.6814C23.2833 41.9884 7.52698 50.4395 7.52698 50.4395C7.52698 50.4395 10.268 51.9301 10.0099 52.6754L20.3718 46.8761C20.3718 46.8761 24.0568 44.3092 25.0799 43.7287C26.103 43.1481 31.7602 39.5864 32.9587 49.2785C34.1573 58.9706 32.9587 57.811 32.9587 57.811C32.9587 57.811 34.6714 58.3917 37.1544 53.7518C39.6374 49.1119 47.3426 48.0357 47.3426 48.0357L47.7706 43.1497C47.7706 43.1497 49.2991 39.9104 48.1216 38.5659C47.7649 38.1679 47.5276 37.6829 47.4355 37.1636C47.2408 35.9226 47.4355 33.8548 50.1624 32.1368C54.358 29.485 55.9846 27.3324 55.9846 27.3324C55.9846 27.3324 56.0705 25.757 53.5017 25.0116C50.9328 24.2663 40.4866 20.2072 40.4866 20.2072L40.1356 21.6162L48.3778 27.2441C48.3778 27.2441 44.2682 30.4696 41.0079 30.3916C41.0077 30.3916 41.6131 32.7938 38.702 32.877Z" fill="#FF0202"/>
<path opacity="0.1" d="M40.2882 29.0181C40.0857 28.354 39.9275 27.6781 39.8145 26.9944L35.2766 28.1543C35.4767 28.9924 35.4409 29.867 35.1731 30.6872C36.1009 30.9267 37.081 30.8961 37.9909 30.5992C38.9008 30.3023 39.6999 29.7523 40.2882 29.0181Z" fill="black"/>
<path d="M36.5191 30.5989C39.2142 30.5989 41.3991 28.4851 41.3991 25.8776C41.3991 23.2701 39.2142 21.1563 36.5191 21.1563C33.8239 21.1563 31.639 23.2701 31.639 25.8776C31.639 28.4851 33.8239 30.5989 36.5191 30.5989Z" fill="#FEB9B9"/>
<path opacity="0.1" d="M41.8271 63.9004C41.8271 63.9004 44.6523 69.2855 43.796 70.9406L41.8271 63.9004Z" fill="black"/>
<path d="M39.1142 14.9733C40.4688 15.1227 41.7551 15.6846 43.0888 15.9919C43.4221 16.0921 43.777 16.105 44.1171 16.0292C44.6347 15.8747 45.0559 15.3502 45.5929 15.3654C45.9233 15.3756 46.2157 15.5929 46.4878 15.8016C46.9239 16.1246 47.3345 16.4787 47.716 16.861C48.6355 17.8269 49.2058 19.1274 50.0445 20.1783C50.8832 21.2292 52.0794 22.4615 53.2708 21.9796C52.4603 25.0354 49.9322 26.947 47.0598 27.1373C45.914 27.2134 44.74 26.9828 43.631 27.307C43.3547 27.4166 43.063 27.4852 42.7657 27.5107C42.1269 27.5107 41.6128 26.9437 41.2144 26.3919C40.2808 25.0949 39.5421 23.623 38.491 22.4397C38.14 22.0476 37.7348 21.6758 37.2434 21.6045C36.7521 21.5333 36.3012 21.7607 35.8643 21.9797C35.1431 22.3414 34.4061 22.7148 33.8464 23.3379C33.2866 23.9611 32.9339 24.8811 33.1654 25.7147C33.29 26.1663 33.5745 26.5738 33.5795 27.0457C33.5901 27.7994 32.9022 28.3495 32.7671 29.0829C32.7366 29.3909 32.7254 29.7005 32.7337 30.0098C32.6741 31.0144 31.9943 31.8364 31.2863 32.4697C31.0091 32.7142 30.7042 32.979 30.623 33.3576C30.5686 33.6172 30.623 33.8903 30.5879 34.1538C30.4844 34.8057 29.8123 35.1368 29.2174 35.2217C28.5224 35.3213 27.8125 35.2398 27.1608 34.9858C27.9926 34.6053 28.505 33.5224 28.312 32.553C28.0471 31.2083 26.6503 30.2424 26.7702 28.8742C26.8358 28.4544 26.966 28.0464 27.1563 27.6638C27.4606 26.9244 27.6819 26.1555 27.8161 25.3703C27.9214 24.7642 27.9723 24.1207 27.7757 23.5419C27.6002 23.0155 27.2335 22.5964 26.9228 22.1514C26.5017 21.5462 26.1693 20.8874 25.9349 20.194C25.85 19.9883 25.8176 19.7658 25.8405 19.5454C25.9109 19.2851 26.0607 19.0514 26.2705 18.8748C27.0339 18.0985 27.8498 17.2925 28.8729 17.0701C29.361 16.9917 29.8575 16.9735 30.3504 17.0158C31.2076 17.0418 32.0656 17.0066 32.9175 16.9105C33.6193 16.8307 34.8054 16.8409 35.4005 16.4012C35.9549 15.9902 36.2673 15.4742 36.9498 15.2129C37.641 14.965 38.384 14.8828 39.1152 14.9734L39.1142 14.9733Z" fill="#2F2E41"/>
<path d="M129.79 113.489C133.7 113.489 136.869 112.97 136.869 112.331C136.869 111.691 133.7 111.172 129.79 111.172C125.881 111.172 122.711 111.691 122.711 112.331C122.711 112.97 125.881 113.489 129.79 113.489Z" fill="#C51818"/>
<path d="M132.718 110.437C133.041 110.181 133.276 109.838 133.392 109.451C133.48 109.061 133.308 108.598 132.92 108.447C132.487 108.287 132.024 108.578 131.674 108.871C131.324 109.164 130.921 109.5 130.461 109.437C130.698 109.23 130.875 108.967 130.975 108.674C131.075 108.382 131.096 108.069 131.034 107.766C131.013 107.641 130.958 107.523 130.874 107.425C130.634 107.177 130.197 107.282 129.911 107.48C128.995 108.101 128.74 109.306 128.735 110.387C128.641 109.997 128.72 109.59 128.717 109.195C128.713 108.8 128.603 108.342 128.252 108.134C128.036 108.021 127.793 107.966 127.548 107.974C127.136 107.958 126.678 107.999 126.397 108.29C126.045 108.651 126.14 109.258 126.442 109.653C126.745 110.048 127.208 110.302 127.634 110.576C127.975 110.773 128.265 111.041 128.484 111.361C128.51 111.406 128.531 111.454 128.547 111.503H131.119C131.699 111.219 132.237 110.86 132.718 110.437L132.718 110.437Z" fill="#FF0202"/>
<path d="M33.5444 114C36.1245 114 38.2161 113.658 38.2161 113.236C38.2161 112.813 36.1245 112.471 33.5444 112.471C30.9643 112.471 28.8727 112.813 28.8727 113.236C28.8727 113.658 30.9643 114 33.5444 114Z" fill="#EFEFEF"/>
<path d="M35.4765 111.986C35.6894 111.817 35.8446 111.59 35.9215 111.335C35.9553 111.207 35.9429 111.071 35.8863 110.951C35.8297 110.83 35.7322 110.732 35.6101 110.673C35.3242 110.567 35.0187 110.759 34.7876 110.953C34.5565 111.146 34.2903 111.367 33.9871 111.326C34.1432 111.189 34.26 111.016 34.3261 110.823C34.3923 110.629 34.4056 110.423 34.3647 110.223C34.3511 110.14 34.3145 110.063 34.259 109.998C34.1016 109.834 33.8128 109.904 33.6235 110.034C33.0194 110.445 32.8509 111.239 32.8474 111.953C32.7859 111.696 32.8381 111.427 32.8358 111.166C32.8334 110.906 32.7603 110.604 32.529 110.466C32.3863 110.392 32.226 110.356 32.0642 110.36C31.7924 110.35 31.4903 110.377 31.3043 110.57C31.072 110.808 31.1347 111.208 31.3345 111.469C31.5343 111.73 31.8399 111.897 32.1212 112.078C32.346 112.207 32.5379 112.384 32.6824 112.595C32.6998 112.625 32.7138 112.656 32.7242 112.689H34.4216C34.8044 112.501 35.1592 112.264 35.4765 111.985V111.986Z" fill="#EFEFEF"/>
<path d="M7.12388 114C9.704 114 11.7956 113.658 11.7956 113.236C11.7956 112.813 9.704 112.471 7.12388 112.471C4.54375 112.471 2.45215 112.813 2.45215 113.236C2.45215 113.658 4.54375 114 7.12388 114Z" fill="#EFEFEF"/>
<path d="M9.05601 111.986C9.26891 111.817 9.42403 111.59 9.50094 111.335C9.53481 111.207 9.52241 111.071 9.46578 110.951C9.40916 110.83 9.31171 110.732 9.18958 110.673C8.90372 110.567 8.59818 110.759 8.36706 110.953C8.13595 111.146 7.86975 111.367 7.56658 111.326C7.72263 111.189 7.83943 111.016 7.90561 110.823C7.97178 110.629 7.98507 110.423 7.94416 110.223C7.93055 110.14 7.89402 110.063 7.83844 109.998C7.68111 109.834 7.39225 109.904 7.20299 110.034C6.59884 110.445 6.43035 111.239 6.42689 111.953C6.36537 111.696 6.4176 111.427 6.41524 111.166C6.41288 110.906 6.33973 110.604 6.10845 110.466C5.9658 110.392 5.80551 110.356 5.6437 110.36C5.37183 110.35 5.06977 110.377 4.8838 110.57C4.65143 110.808 4.7142 111.208 4.914 111.469C5.11381 111.73 5.41935 111.897 5.70065 112.078C5.92551 112.207 6.11732 112.384 6.26185 112.595C6.27925 112.625 6.29329 112.656 6.30369 112.689H8.00112C8.38385 112.501 8.73869 112.264 9.05601 111.985V111.986Z" fill="#EFEFEF"/>
<path d="M142 113.563H0V113.841H142V113.563Z" fill="#2F2E41"/>
<path d="M135.068 7.69041C135.068 7.69041 120.245 6.82508 121.991 16.8744C121.991 16.8744 121.639 18.6509 123.308 19.4565C123.308 19.4565 123.335 18.7122 124.829 18.966C125.361 19.0513 125.902 19.0764 126.44 19.0408C127.166 18.9946 127.857 18.7215 128.408 18.2624C128.408 18.2624 132.575 16.5966 134.195 10.0084C134.195 10.0084 135.394 8.57095 135.346 8.20123L132.845 9.23505C132.845 9.23505 133.701 10.9809 133.021 12.4315C133.021 12.4315 132.94 9.29746 132.459 9.36565C132.363 9.37935 131.16 9.97024 131.16 9.97024C131.16 9.97024 132.63 13.0105 131.521 15.2215C131.521 15.2215 131.942 11.4744 130.701 10.19L128.94 11.1847C128.94 11.1847 130.658 14.3256 129.493 16.889C129.493 16.889 129.792 12.9578 128.569 11.4266L126.974 12.6307C126.974 12.6307 128.588 15.7255 127.604 17.8516C127.604 17.8516 127.475 13.2766 126.628 12.9309C126.628 12.9309 125.232 14.1232 125.019 14.6103C125.019 14.6103 126.125 16.8586 125.438 18.044C125.438 18.044 125.018 14.9952 124.672 14.9782C124.672 14.9782 123.282 16.9982 123.137 18.3847C123.137 18.3847 123.197 16.3254 124.336 14.7874C124.336 14.7874 122.991 15.0106 122.206 15.8529C122.206 15.8529 122.422 14.4256 124.679 14.2996C124.679 14.2996 125.829 12.7667 126.135 12.6747C126.135 12.6747 123.892 12.4921 122.531 13.0767C122.531 13.0767 123.729 11.7295 126.547 12.3426L128.123 11.0975C128.123 11.0975 125.169 10.7074 123.915 11.1385C123.915 11.1385 125.357 9.94619 128.547 10.8149L130.262 9.8235C130.262 9.8235 127.743 9.29883 126.243 9.48285C126.243 9.48285 127.827 8.6568 130.766 9.55272L131.998 9.01998C131.998 9.01998 130.153 8.66913 129.612 8.61296C129.072 8.5568 129.044 8.41372 129.044 8.41372C130.213 8.22517 131.413 8.35432 132.51 8.78679C132.51 8.78679 135.113 7.84886 135.068 7.69041Z" fill="#FF0202"/>
<path d="M114.758 2.37004C114.758 2.37004 108.068 1.97992 108.85 6.52086C108.85 6.52086 108.692 7.32317 109.445 7.68756C109.445 7.68756 109.457 7.34691 110.133 7.46442C110.373 7.50352 110.617 7.51497 110.86 7.49852C111.188 7.47749 111.501 7.35304 111.749 7.14417C111.749 7.14417 113.633 6.39133 114.365 3.41406C114.365 3.41406 114.905 2.76518 114.884 2.59821L113.754 3.06489C113.754 3.06489 114.14 3.8535 113.837 4.50923C113.837 4.50923 113.8 3.09366 113.583 3.12623C113.539 3.12623 112.995 3.40021 112.995 3.40021C112.995 3.40021 113.661 4.77468 113.159 5.77289C113.159 5.77289 113.349 4.07984 112.787 3.499L111.992 3.95563C111.992 3.95563 112.768 5.3744 112.242 6.53273C112.242 6.53273 112.377 4.75627 111.824 4.06477L111.104 4.60984C111.104 4.60984 111.833 6.00821 111.39 6.96912C111.39 6.96912 111.33 4.90132 110.948 4.7447C110.948 4.7447 110.317 5.28292 110.22 5.50439C110.22 5.50439 110.72 6.52634 110.411 7.05603C110.411 7.05603 110.22 5.67806 110.059 5.67091C110.059 5.67091 109.43 6.58418 109.365 7.20383C109.396 6.62577 109.583 6.06568 109.907 5.57897C109.545 5.64544 109.21 5.81299 108.944 6.06103C108.944 6.06103 109.043 5.4155 110.062 5.35933C110.062 5.35933 110.59 4.66616 110.721 4.62354C110.721 4.62354 109.707 4.5418 109.092 4.80619C109.092 4.80619 109.633 4.1981 110.906 4.47406L111.61 3.91195C111.61 3.91195 110.274 3.73995 109.708 3.9296C109.708 3.9296 110.359 3.39138 111.801 3.78317L112.576 3.33522C112.576 3.33522 111.436 3.09853 110.759 3.183C110.759 3.183 111.475 2.80993 112.803 3.21345L113.357 2.97326C113.357 2.97326 112.523 2.8148 112.278 2.78923C112.033 2.76366 112.021 2.69897 112.021 2.69897C112.549 2.61391 113.092 2.67289 113.588 2.86929C113.588 2.86929 114.778 2.44097 114.758 2.37004Z" fill="#3F3D56"/>
<path d="M11.5907 71.693C11.5907 71.693 4.9008 71.3029 5.68241 75.8438C5.68241 75.8438 5.52508 76.6461 6.27743 77.0105C6.27743 77.0105 6.2897 76.6699 6.96575 76.7874C7.20584 76.8265 7.44988 76.8379 7.69276 76.8215C8.02116 76.8005 8.33341 76.676 8.58182 76.4671C8.58182 76.4671 10.4655 75.7143 11.1979 72.737C11.1979 72.737 11.7383 72.0881 11.7171 71.9212L10.5868 72.3879C10.5868 72.3879 10.9724 73.1765 10.6696 73.8322C10.6696 73.8322 10.6326 72.4166 10.4161 72.4492C10.3721 72.4492 9.82803 72.7232 9.82803 72.7232C9.82803 72.7232 10.4935 74.0976 9.99181 75.0959C9.99181 75.0959 10.1819 73.4028 9.62036 72.822L8.82459 73.2786C8.82459 73.2786 9.60101 74.6974 9.07458 75.8557C9.07458 75.8557 9.2102 74.0792 8.65735 73.3877L7.93725 73.9328C7.93725 73.9328 8.66615 75.3312 8.22249 76.2921C8.22249 76.2921 8.16271 74.2243 7.78055 74.0677C7.78055 74.0677 7.15029 74.6059 7.05338 74.8274C7.05338 74.8274 7.55337 75.8493 7.24359 76.379C7.24359 76.379 7.05338 75.001 6.89149 74.9939C6.89149 74.9939 6.26296 75.9071 6.19782 76.5268C6.2293 75.9487 6.41623 75.3886 6.74013 74.9019C6.37744 74.9684 6.04272 75.136 5.77713 75.384C5.77713 75.384 5.87577 74.7385 6.89511 74.6823C6.89511 74.6823 7.42326 73.9891 7.55353 73.9465C7.55353 73.9465 6.53954 73.8648 5.92501 74.1292C5.92501 74.1292 6.46544 73.5211 7.73839 73.797L8.4426 73.2349C8.4426 73.2349 7.10687 73.0629 6.54048 73.2526C6.54048 73.2526 7.19183 72.7143 8.63375 73.1061L9.40844 72.6582C9.40844 72.6582 8.26938 72.4215 7.5916 72.506C7.5916 72.506 8.30807 72.1329 9.63561 72.5364L10.1902 72.2962C10.1902 72.2962 9.35636 72.1378 9.11093 72.1122C8.86549 72.0866 8.85385 72.0219 8.85385 72.0219C9.38234 71.9369 9.92489 71.9959 10.4207 72.1923C10.4207 72.1923 11.6114 71.7639 11.5907 71.693Z" fill="#3F3D56"/>
<defs>
<linearGradient id="paint0_linear" x1="32.9377" y1="58.4801" x2="32.9377" y2="58.4356" gradientUnits="userSpaceOnUse">
<stop stop-color="#808080" stop-opacity="0.251"/>
<stop offset="0.54" stop-color="#808080" stop-opacity="0.122"/>
<stop offset="1" stop-color="#808080" stop-opacity="0.102"/>
</linearGradient>
</defs>
</svg>
