<svg width="173" height="147" viewBox="0 0 173 147" fill="none" xmlns="http://www.w3.org/2000/svg">
<g clip-path="url(#clip0)">
<path d="M152.963 84.0309C152.013 92.3796 150.04 99.0826 147.331 104.428C143.727 111.551 137.562 114.421 132.055 117.424C130.464 118.29 128.809 119.028 127.106 119.632C117.085 123.2 105.869 122.254 97.0584 120.369C90.879 119.047 84.6064 118.233 78.3005 117.936C76.5021 117.853 74.7018 117.812 72.8997 117.812C70.1209 117.816 20.086 118.79 7.90396 93.4835C4.89628 87.241 2.8347 79.6153 2.09404 70.3198C-0.00178301 44.0404 11.5171 26.7809 26.3753 15.4996C54.4824 -5.84089 93.0091 -4.94592 120.702 16.9567C139.148 31.5461 156.419 53.6262 152.963 84.0309Z" fill="#F2F2F2"/>
<path d="M54.0625 76.4228C54.0625 97.3116 41.9602 104.605 27.0313 104.605C12.1023 104.605 0 97.3116 0 76.4228C0 55.534 27.0313 28.9602 27.0313 28.9602C27.0313 28.9602 54.0625 55.534 54.0625 76.4228Z" fill="#FF0202"/>
<path d="M26.0465 101.41L26.3233 83.9277L37.8448 62.3001L26.3668 81.1853L26.4911 73.3248L34.4316 57.6773L26.5241 71.2445L26.7479 57.1069L35.2508 44.6495L26.783 54.8837L26.9229 28.9602L26.044 63.2782L26.1163 61.8626L17.4713 48.2848L25.9777 64.5802L25.1722 80.3697L25.1482 79.9505L15.1821 65.6619L25.1179 81.431L25.0172 83.4057L24.9992 83.4353L25.0074 83.5975L22.9639 123.657H25.6942L26.0218 102.965L35.9333 87.2348L26.0465 101.41Z" fill="#3F3D56"/>
<path d="M173 77.7171C173 98.6059 160.898 105.9 145.969 105.9C131.04 105.9 118.938 98.6059 118.938 77.7171C118.938 56.8284 145.969 30.2545 145.969 30.2545C145.969 30.2545 173 56.8284 173 77.7171Z" fill="#FF0202"/>
<path d="M144.984 102.704L145.261 85.2221L156.782 63.5944L145.304 82.4797L145.429 74.6192L153.369 58.9717L145.462 72.5389L145.685 58.4013L154.188 45.9439L145.721 56.1781L145.86 30.2546L144.982 64.5726L145.054 63.157L136.409 49.5792L144.915 65.8746L144.11 81.664L144.086 81.2449L134.12 66.9563L144.055 82.7254L143.955 84.7001L143.937 84.7297L143.945 84.8918L141.901 124.951H144.632L144.959 104.26L154.871 88.5292L144.984 102.704Z" fill="#3F3D56"/>
<path d="M116.775 59.9765C116.775 82.8149 103.543 90.7892 87.2209 90.7892C70.8986 90.7892 57.6667 82.8149 57.6667 59.9765C57.6667 37.1381 87.2209 8.084 87.2209 8.084C87.2209 8.084 116.775 37.1381 116.775 59.9765Z" fill="#FF0202"/>
<path d="M86.1443 87.2957L86.4469 68.1819L99.0436 44.5356L86.4944 65.1836L86.6305 56.5893L95.312 39.4814L86.6664 54.3149L86.9111 38.8577L96.2077 25.2376L86.9496 36.4271L87.1025 8.08409L86.1416 45.6051L86.2205 44.0572L76.7688 29.2123L86.069 47.0285L85.1883 64.2917L85.1622 63.8334L74.2659 48.2114L85.1292 65.4522L85.0189 67.6111L84.9992 67.6436L85.0083 67.8208L82.7739 111.619H85.7592L86.1173 88.9963L96.9539 71.7976L86.1443 87.2957Z" fill="#3F3D56"/>
<path d="M149.933 126.845C149.933 131.747 118.629 147 80.0124 147C41.3962 147 10.0916 131.747 10.0916 126.845C10.0916 121.943 38.8733 110.943 77.4895 110.943C116.106 110.943 149.933 121.943 149.933 126.845Z" fill="#3F3D56"/>
<path opacity="0.1" d="M149.933 126.845C149.933 131.747 118.629 147 80.0124 147C41.3962 147 10.0916 131.747 10.0916 126.845C10.0916 121.943 38.8733 110.943 77.4895 110.943C116.106 110.943 149.933 121.943 149.933 126.845Z" fill="black"/>
<path d="M149.933 126.845C149.933 131.747 118.629 135.72 80.0124 135.72C41.3962 135.72 10.0916 131.747 10.0916 126.845C10.0916 121.943 38.8733 110.943 77.4895 110.943C116.106 110.943 149.933 121.943 149.933 126.845Z" fill="#3F3D56"/>
<path d="M103.517 102.267C103.517 109.299 107.816 114.989 113.129 114.989L103.517 102.267Z" fill="#3F3D56"/>
<path d="M113.129 114.989C113.129 107.878 117.927 102.124 123.856 102.124L113.129 114.989Z" fill="#BABABA"/>
<path d="M107 102.904C107 109.584 109.741 114.989 113.129 114.989L107 102.904Z" fill="#BABABA"/>
<path d="M113.129 114.989C113.129 105.903 118.675 98.5501 125.528 98.5501L113.129 114.989Z" fill="#3F3D56"/>
<path d="M111.107 115.078C111.107 115.078 112.47 115.035 112.881 114.735C113.292 114.435 114.978 114.077 115.08 114.558C115.182 115.039 117.129 116.952 115.59 116.965C114.051 116.978 112.014 116.719 111.604 116.463C111.194 116.207 111.107 115.078 111.107 115.078Z" fill="#A8A8A8"/>
<path opacity="0.2" d="M115.617 116.798C114.078 116.81 112.041 116.552 111.631 116.295C111.319 116.1 111.194 115.4 111.153 115.077C111.124 115.078 111.107 115.078 111.107 115.078C111.107 115.078 111.194 116.207 111.604 116.463C112.014 116.719 114.051 116.978 115.59 116.965C116.034 116.961 116.187 116.799 116.179 116.559C116.117 116.704 115.948 116.795 115.617 116.798Z" fill="black"/>
<path opacity="0.1" d="M80.9135 129.803C94.0509 129.803 104.701 128.065 104.701 125.92C104.701 123.776 94.0509 122.037 80.9135 122.037C67.776 122.037 57.126 123.776 57.126 125.92C57.126 128.065 67.776 129.803 80.9135 129.803Z" fill="black"/>
<path d="M91.3657 117.229H89.0229V122.777H91.3657V117.229Z" fill="#FFB9B9"/>
<path d="M91.5458 42.3409H82.5354V58.9828H91.5458V42.3409Z" fill="#FF6584"/>
<path d="M98.1633 73.8368L98.475 76.3969L90.2628 78.9568L89.2231 74.2636L98.1633 73.8368Z" fill="#FFB9B9"/>
<path d="M86.0005 49.197C86.0005 49.197 85.7926 51.117 85.3768 51.117C84.961 51.117 83.5057 51.8637 83.5057 51.8637L83.0898 53.8904L86.0005 55.7037L90.7824 55.1703L92.1338 53.037L90.7824 51.6504C90.7824 51.6504 89.6389 49.0904 90.0547 48.557C90.4705 48.0237 86.0005 49.197 86.0005 49.197Z" fill="#FFB9B9"/>
<path opacity="0.1" d="M86.0005 49.197C86.0005 49.197 85.7926 51.117 85.3768 51.117C84.961 51.117 83.5057 51.8637 83.5057 51.8637L83.0898 53.8904L86.0005 55.7037L90.7824 55.1703L92.1338 53.037L90.7824 51.6504C90.7824 51.6504 89.6389 49.0904 90.0547 48.557C90.4705 48.0237 86.0005 49.197 86.0005 49.197Z" fill="black"/>
<path d="M73.0063 115.65C73.0063 115.65 72.0707 122.05 70.9272 122.477C69.7837 122.903 75.2933 123.65 75.2933 123.65L75.7091 121.303C75.7091 121.303 75.813 117.037 76.2289 116.397C76.6447 115.757 73.0063 115.65 73.0063 115.65Z" fill="#FFB9B9"/>
<path d="M83.6095 78.4235C83.6095 78.4235 98.6828 75.6502 98.7868 75.1169C98.8908 74.5836 101.905 79.1702 100.034 88.1301C98.1631 97.0901 93.4852 118.21 93.4852 118.21C93.4852 118.21 88.7033 119.703 88.8072 118.53C88.9112 117.357 90.4705 96.9834 90.4705 96.9834L89.431 88.3435L87.6637 89.4101L80.283 104.343L76.5407 117.25C76.5407 117.25 71.7588 118.103 72.4865 116.29C73.2142 114.477 75.6051 100.397 75.6051 100.397L82.1542 80.5568C82.1542 80.5568 81.9463 78.4235 83.6095 78.4235Z" fill="#979797"/>
<path d="M87.4039 50.637C89.8152 50.637 91.77 48.6313 91.77 46.157C91.77 43.6828 89.8152 41.6771 87.4039 41.6771C84.9926 41.6771 83.0378 43.6828 83.0378 46.157C83.0378 48.6313 84.9926 50.637 87.4039 50.637Z" fill="#FFB9B9"/>
<path d="M91.926 51.757C91.926 51.757 89.847 53.7837 84.9611 53.2504C80.0753 52.717 86.3125 64.6636 86.3125 64.6636L88.2876 76.7169C88.2876 76.7169 97.0198 75.6502 97.3316 73.6236C97.6435 71.5969 91.926 51.757 91.926 51.757Z" fill="#F2F2F2"/>
<path d="M89.8469 63.1703C89.8469 63.1703 87.352 61.8903 86.4164 58.3703C85.4808 54.8503 84.6492 51.2237 84.1294 51.3304C83.6906 51.4204 79.6204 53.0313 78.3013 54.1085C78.0581 54.3071 77.9084 54.4876 77.8922 54.637C77.7883 55.597 81.6345 65.1969 81.6345 65.1969C81.6345 65.1969 84.6492 72.1302 83.4018 74.3702C82.1543 76.6102 82.0504 79.4902 84.3373 79.2769C86.6243 79.0635 94.2129 78.6369 93.1734 72.6636C93.1734 72.6636 95.1485 76.8235 100.658 73.8369C100.658 73.8369 103.985 73.3036 103.881 72.1302C103.777 70.9569 98.579 60.8236 98.579 60.8236C98.579 60.8236 97.7474 56.3437 99.3067 54.637L95.7723 50.3704C95.7723 50.3704 94.9406 49.0904 94.109 49.7304C93.2774 50.3704 91.4062 51.437 91.0943 51.5437C90.7825 51.6504 90.5775 51.1603 90.5775 51.1603C89.8572 52.7061 89.5684 54.4264 89.743 56.1303C90.0548 58.9036 89.8469 63.1703 89.8469 63.1703Z" fill="white"/>
<path d="M73.3181 121.197C73.3181 121.197 73.086 120.45 71.7467 121.197C71.7467 121.197 72.1746 118.85 70.7193 118.85C69.2639 118.85 68.7442 121.623 68.7442 121.623C68.7442 121.623 68.3283 123.437 65.5216 124.183C62.7148 124.93 64.8979 127.49 66.873 127.49C68.8481 127.49 71.447 125.89 71.447 125.89C71.447 125.89 76.8526 125.997 76.9565 124.93C77.0605 123.863 76.4367 120.663 76.0209 120.663C75.6051 120.663 74.7735 122.157 74.7735 122.157L73.3181 121.197Z" fill="white"/>
<path d="M90.9903 119.319C90.9903 119.319 89.5349 117.719 88.7033 120.386C87.8717 123.053 87.2479 124.119 87.7677 124.546C88.2875 124.973 88.7033 124.759 88.4954 125.613C88.2875 126.466 89.1191 128.279 90.9903 128.279C92.8615 128.279 93.3812 126.893 93.2773 125.933C93.1733 124.973 92.3417 123.799 92.3417 123.799L91.5101 120.813L90.9903 119.319Z" fill="white"/>
<path d="M99.2028 44.2904L93.6933 46.2104C93.6933 46.2104 88.7035 49.197 90.8866 49.837C93.0696 50.477 94.9407 47.917 94.9407 47.917L99.7226 46.6371L99.2028 44.2904Z" fill="#FFB9B9"/>
<path d="M84.4332 39.2294C83.7791 39.6892 83.2583 40.319 82.7632 40.9545C81.7572 42.2458 80.7715 43.7879 81.0194 45.4214C81.1135 46.0418 81.3822 46.6192 81.5335 47.2276C81.7377 48.0486 81.7242 48.9079 81.7095 49.7551C81.7216 50.1151 81.6781 50.4748 81.5806 50.8209C81.435 51.1581 81.2637 51.4829 81.0684 51.7925C80.5677 52.7494 80.5555 53.8863 80.555 54.9723C80.5311 55.338 80.5795 55.7048 80.6976 56.0506C80.8343 56.3772 81.0888 56.6332 81.2998 56.915C81.6496 57.3911 81.883 57.9464 81.9805 58.5341C82.0779 59.1219 82.0366 59.7251 81.8599 60.2931C82.1313 60.2943 82.3973 60.2161 82.6268 60.0676C82.8563 59.9191 83.0397 59.7065 83.1556 59.4548C83.1917 59.7255 83.169 60.001 83.0891 60.2616C83.0093 60.5222 82.8742 60.7614 82.6937 60.9623C83.8837 60.5994 85.1593 59.9876 85.5937 58.7943C85.7212 58.3888 85.793 57.9671 85.8073 57.5413C86.0383 54.5481 86.1702 51.4429 85.124 48.6387C84.7893 47.7416 84.3338 46.8732 84.2215 45.9194C84.1093 44.9657 84.4524 43.8636 85.3063 43.4697C85.3262 43.7139 85.4319 43.9423 85.6037 44.1125C85.7937 44.2573 86.1452 44.1664 86.1486 43.9236L86.5611 44.5129C86.7193 44.4331 86.8544 44.3123 86.9528 44.1622L87.2356 44.5174L87.837 44.0685L88.3592 44.6464C88.5603 44.5289 88.7205 44.3499 88.8177 44.1344C88.9299 44.3067 89.0689 44.4959 89.27 44.5146C89.7079 44.5552 89.7983 43.8421 90.1808 43.6197C90.3222 43.5556 90.4812 43.5457 90.629 43.5916C90.7769 43.6376 90.9038 43.7365 90.9866 43.8703C91.1444 44.1456 91.2019 44.4695 91.1489 44.7842C90.9905 46.251 89.7709 47.5893 90.1325 49.0176C90.3358 49.8207 91.0207 50.4647 91.0724 51.2928C91.1137 51.9546 90.7345 52.5807 90.7403 53.2438C90.7471 54.0209 91.2704 54.681 91.7812 55.2548C92.6904 56.276 93.6473 57.2493 94.6521 58.1748L94.3417 57.6177C94.4866 57.6059 94.6323 57.6265 94.7687 57.678C94.9051 57.7295 95.0291 57.8107 95.1321 57.9159C95.2213 57.5956 95.0734 57.262 94.9338 56.9612C94.0981 55.1604 93.4233 53.243 93.3225 51.2511C93.1824 48.4824 94.1526 45.6705 93.5378 42.9708C93.1841 41.4592 92.3599 40.1072 91.1899 39.1196C90.6212 38.6392 90.19 38.3515 89.4536 38.2986C88.6304 38.2252 87.8023 38.2318 86.9803 38.3185C86.0721 38.4071 85.1983 38.7197 84.4332 39.2294Z" fill="black"/>
<path d="M94.9407 50.477C94.9407 50.477 96.0842 50.5837 96.6039 50.477C97.1237 50.3704 97.8514 49.837 97.8514 49.837L101.802 46.8504L98.3712 47.3837C98.3712 47.3837 98.9949 42.4771 98.787 42.3704C98.5791 42.2637 108.871 40.2371 108.663 43.5437C108.455 46.8504 102.633 53.357 99.3067 54.637L97.1237 54.957L94.9407 50.477Z" fill="white"/>
<path d="M106.143 88.2928H57.126V100.127H106.143V88.2928Z" fill="white"/>
<path d="M99.7454 90.974H63.3433V97.2609H99.7454V90.974Z" fill="#3F3D56"/>
<path d="M71.8026 93.9795C71.7881 93.8183 71.0931 93.7465 70.1397 93.7869C70.6922 92.9886 71.0122 92.3516 70.8884 92.2512C70.7716 92.1565 70.2937 92.5658 69.7117 93.2305C69.6567 92.3388 69.529 91.7136 69.3802 91.7136C69.2178 91.7136 69.0806 92.4574 69.0355 93.4797C68.2258 92.8823 67.5719 92.5316 67.4713 92.6623C67.3752 92.7871 67.8128 93.3143 68.5085 93.9448C67.5903 94.0846 66.9435 94.2819 66.9578 94.4403C66.9723 94.6015 67.6672 94.6733 68.6207 94.6329C68.0682 95.4312 67.7482 96.0682 67.872 96.1686C67.9888 96.2633 68.4667 95.854 69.0486 95.1893C69.1036 96.081 69.2313 96.7062 69.3802 96.7062C69.5425 96.7062 69.6798 95.9623 69.7249 94.94C70.5346 95.5375 71.1884 95.8882 71.2891 95.7575C71.3852 95.6326 70.9476 95.1055 70.2518 94.475C71.17 94.3352 71.8169 94.1379 71.8026 93.9795Z" fill="white"/>
<path d="M77.9296 93.9795C77.915 93.8183 77.2201 93.7465 76.2666 93.7869C76.8191 92.9886 77.1391 92.3516 77.0153 92.2512C76.8986 92.1565 76.4206 92.5658 75.8387 93.2305C75.7837 92.3388 75.656 91.7136 75.5071 91.7136C75.3448 91.7136 75.2076 92.4574 75.1625 93.4797C74.3528 92.8823 73.6989 92.5316 73.5982 92.6623C73.5021 92.7871 73.9398 93.3143 74.6355 93.9448C73.7173 94.0846 73.0704 94.2819 73.0847 94.4403C73.0993 94.6015 73.7942 94.6733 74.7477 94.6329C74.1952 95.4312 73.8751 96.0682 73.9989 96.1686C74.1157 96.2633 74.5937 95.854 75.1756 95.1893C75.2306 96.081 75.3583 96.7062 75.5071 96.7062C75.6695 96.7062 75.8067 95.9623 75.8518 94.94C76.6615 95.5375 77.3154 95.8882 77.4161 95.7575C77.5121 95.6326 77.0745 95.1055 76.3788 94.475C77.297 94.3352 77.9439 94.1379 77.9296 93.9795Z" fill="white"/>
<path d="M84.0568 93.9795C84.0422 93.8183 83.3473 93.7465 82.3938 93.7869C82.9463 92.9886 83.2663 92.3516 83.1425 92.2512C83.0257 92.1565 82.5478 92.5658 81.9659 93.2305C81.9109 92.3388 81.7832 91.7136 81.6343 91.7136C81.472 91.7136 81.3348 92.4574 81.2897 93.4797C80.48 92.8823 79.8261 92.5316 79.7254 92.6623C79.6293 92.7871 80.067 93.3143 80.7627 93.9448C79.8445 94.0846 79.1976 94.2819 79.2119 94.4403C79.2265 94.6015 79.9214 94.6733 80.8749 94.6329C80.3223 95.4312 80.0023 96.0682 80.1261 96.1686C80.2429 96.2633 80.7209 95.854 81.3028 95.1893C81.3578 96.081 81.4855 96.7062 81.6343 96.7062C81.7967 96.7062 81.9339 95.9623 81.979 94.94C82.7887 95.5375 83.4426 95.8882 83.5432 95.7575C83.6393 95.6326 83.2017 95.1055 82.506 94.475C83.4242 94.3352 84.0711 94.1379 84.0568 93.9795Z" fill="white"/>
<path d="M90.184 93.9795C90.1694 93.8183 89.4745 93.7465 88.521 93.7869C89.0735 92.9886 89.3935 92.3516 89.2697 92.2512C89.1529 92.1565 88.675 92.5658 88.0931 93.2305C88.0381 92.3388 87.9104 91.7136 87.7615 91.7136C87.5992 91.7136 87.462 92.4574 87.4169 93.4797C86.6072 92.8823 85.9533 92.5316 85.8526 92.6623C85.7565 92.7871 86.1942 93.3143 86.8899 93.9448C85.9717 94.0846 85.3248 94.2819 85.3391 94.4403C85.3537 94.6015 86.0486 94.6733 87.002 94.6329C86.4495 95.4312 86.1295 96.0682 86.2533 96.1686C86.3701 96.2633 86.8481 95.854 87.43 95.1893C87.485 96.081 87.6127 96.7062 87.7615 96.7062C87.9239 96.7062 88.0611 95.9623 88.1062 94.94C88.9159 95.5375 89.5698 95.8882 89.6704 95.7575C89.7665 95.6326 89.3289 95.1055 88.6332 94.475C89.5514 94.3352 90.1983 94.1379 90.184 93.9795Z" fill="white"/>
<path d="M96.3109 93.9795C96.2964 93.8183 95.6014 93.7465 94.648 93.7869C95.2005 92.9886 95.5205 92.3516 95.3967 92.2512C95.2799 92.1565 94.802 92.5658 94.22 93.2305C94.165 92.3388 94.0373 91.7136 93.8885 91.7136C93.7261 91.7136 93.5889 92.4574 93.5438 93.4797C92.7341 92.8823 92.0802 92.5316 91.9796 92.6623C91.8835 92.7871 92.3211 93.3143 93.0168 93.9448C92.0986 94.0846 91.4518 94.2819 91.4661 94.4403C91.4806 94.6015 92.1755 94.6733 93.129 94.6329C92.5765 95.4312 92.2565 96.0682 92.3803 96.1686C92.4971 96.2633 92.975 95.854 93.5569 95.1893C93.6119 96.081 93.7396 96.7062 93.8885 96.7062C94.0508 96.7062 94.1881 95.9623 94.2332 94.94C95.0429 95.5375 95.6967 95.8882 95.7974 95.7575C95.8935 95.6326 95.4559 95.1055 94.7601 94.475C95.6783 94.3352 96.3252 94.1379 96.3109 93.9795Z" fill="white"/>
<path d="M77.2686 83.2235C77.2686 83.2235 76.7488 90.2634 79.2437 90.5834C81.7386 90.9034 79.4516 82.5835 79.4516 82.5835L77.2686 83.2235Z" fill="#FFB9B9"/>
<path d="M78.6198 54.4237L77.8921 54.637C77.8921 54.637 74.8774 79.3835 76.8526 84.1835C76.8526 84.1835 78.9316 83.0101 79.9712 83.2235L81.6344 63.0636L78.6198 54.4237Z" fill="white"/>
</g>
<defs>
<clipPath id="clip0">
<rect width="173" height="147" fill="white"/>
</clipPath>
</defs>
</svg>
