<svg width="197" height="201" viewBox="0 0 197 201" fill="none" xmlns="http://www.w3.org/2000/svg">
<path d="M98.5 0C44.1878 0 0 45.085 0 100.5C0 155.915 44.1878 201 98.5 201C152.812 201 197 155.915 197 100.5C197 45.085 152.812 0 98.5 0ZM104.907 160.129C100.227 160.925 90.9159 162.913 86.1874 163.313C82.1849 163.651 78.4079 161.313 76.1055 157.957C73.797 154.602 73.2439 150.308 74.6144 146.456L93.2334 94.2189H73.8748C73.8583 83.3341 81.8602 75.3307 92.0947 72.2592C96.9788 70.793 106.078 68.7866 110.812 69.0941C113.648 69.2781 118.592 71.0936 120.894 74.4492C123.203 77.8045 123.756 82.0984 122.385 85.9505L103.766 138.188H123.119C123.123 149.06 115.419 158.342 104.907 160.129V160.129ZM110.812 62.8126C104.012 62.8126 98.4996 57.1875 98.4996 50.25C98.4996 43.3117 104.012 37.6874 110.812 37.6874C117.612 37.6874 123.125 43.3117 123.125 50.25C123.125 57.1879 117.613 62.8126 110.812 62.8126Z" fill="#FB5252"/>
</svg>
