<?xml version="1.0" encoding="iso-8859-1"?>
<!-- Generator: Adobe Illustrator 19.0.0, SVG Export Plug-In . SVG Version: 6.00 Build 0)  -->
<svg version="1.1" id="Capa_1" xmlns="http://www.w3.org/2000/svg" xmlns:xlink="http://www.w3.org/1999/xlink" x="0px" y="0px"
	 viewBox="0 0 512 512" style="enable-background:new 0 0 512 512;" xml:space="preserve">
<path style="fill:#FF3636;" d="M441.443,134.2c-17.999-58.2-65.4-105.601-123.6-123.6c-20.4-6.301-41.4-10.6-61.8-10.6
	c-41.7,0-81.899,13.9-115.499,39.101C90.742,75.7,61.043,134.2,61.043,196c0,42.599,13.5,83.099,39,116.999l156,199.001l156-199.001
	C450.142,262,460.943,196.899,441.443,134.2z M256.043,301c-57.9,0-105-47.1-105-105s47.1-106,105-106s105,48.1,105,106
	S313.943,301,256.043,301z"/>
<path style="fill:#CC0000;" d="M412.043,312.999L256.043,512V301c57.9,0,105-47.1,105-105s-47.1-106-105-106V0
	c20.4,0,41.4,4.3,61.8,10.6c58.2,17.999,105.601,65.4,123.6,123.6C460.943,196.899,450.142,262,412.043,312.999z"/>
<g>
</g>
<g>
</g>
<g>
</g>
<g>
</g>
<g>
</g>
<g>
</g>
<g>
</g>
<g>
</g>
<g>
</g>
<g>
</g>
<g>
</g>
<g>
</g>
<g>
</g>
<g>
</g>
<g>
</g>
</svg>
