<svg width="143" height="31" viewBox="0 0 143 31" fill="none" xmlns="http://www.w3.org/2000/svg">
<path d="M26.8086 22H21.4961V8.71875C21.4961 8.35417 21.4245 8.00911 21.2812 7.68359C21.151 7.35807 20.9622 7.07161 20.7148 6.82422C20.4674 6.57682 20.181 6.38802 19.8555 6.25781C19.5299 6.11458 19.1849 6.04297 18.8203 6.04297C18.4557 6.04297 18.1107 6.11458 17.7852 6.25781C17.4727 6.38802 17.1927 6.57682 16.9453 6.82422C16.7109 7.07161 16.5221 7.35807 16.3789 7.68359C16.2487 8.00911 16.1836 8.35417 16.1836 8.71875V22H10.8516V8.71875C10.8516 8.35417 10.7799 8.00911 10.6367 7.68359C10.5065 7.35807 10.3177 7.07161 10.0703 6.82422C9.82292 6.57682 9.53646 6.38802 9.21094 6.25781C8.88542 6.11458 8.54036 6.04297 8.17578 6.04297C7.8112 6.04297 7.46615 6.11458 7.14062 6.25781C6.82812 6.38802 6.54818 6.57682 6.30078 6.82422C6.06641 7.07161 5.8776 7.35807 5.73438 7.68359C5.60417 8.00911 5.53906 8.35417 5.53906 8.71875V22H0.207031V1.08203H1.49609L2.94141 2.68359C3.68359 2.05859 4.4974 1.57682 5.38281 1.23828C6.28125 0.886719 7.21224 0.710938 8.17578 0.710938C9.15234 0.710938 10.1029 0.893229 11.0273 1.25781C11.9648 1.6224 12.7852 2.25391 13.4883 3.15234C13.8138 2.70964 14.1849 2.33203 14.6016 2.01953C15.0182 1.70703 15.4544 1.45312 15.9102 1.25781C16.3789 1.0625 16.8607 0.925781 17.3555 0.847656C17.8503 0.75651 18.3385 0.710938 18.8203 0.710938C19.9271 0.710938 20.9622 0.919271 21.9258 1.33594C22.9023 1.7526 23.7487 2.32552 24.4648 3.05469C25.194 3.77083 25.7669 4.61719 26.1836 5.59375C26.6003 6.57031 26.8086 7.61198 26.8086 8.71875V22ZM50.9297 11.3555C50.9297 12.918 50.6497 14.3763 50.0898 15.7305C49.5299 17.0716 48.7682 18.237 47.8047 19.2266C46.8411 20.2031 45.7083 20.9779 44.4062 21.5508C43.1172 22.1107 41.7305 22.3906 40.2461 22.3906C38.7747 22.3906 37.388 22.1107 36.0859 21.5508C34.7969 20.9779 33.6641 20.2031 32.6875 19.2266C31.724 18.237 30.9622 17.0716 30.4023 15.7305C29.8424 14.3763 29.5625 12.918 29.5625 11.3555C29.5625 9.76693 29.8424 8.29557 30.4023 6.94141C30.9622 5.58724 31.724 4.42188 32.6875 3.44531C33.6641 2.45573 34.7969 1.68099 36.0859 1.12109C37.388 0.561198 38.7747 0.28125 40.2461 0.28125C41.7305 0.28125 43.1172 0.548177 44.4062 1.08203C45.7083 1.60286 46.8411 2.35156 47.8047 3.32812C48.7682 4.29167 49.5299 5.45703 50.0898 6.82422C50.6497 8.17839 50.9297 9.6888 50.9297 11.3555ZM45.5586 11.3555C45.5586 10.4961 45.4154 9.72135 45.1289 9.03125C44.8555 8.32812 44.4779 7.72917 43.9961 7.23438C43.5143 6.72656 42.9479 6.34245 42.2969 6.08203C41.6589 5.80859 40.9753 5.67188 40.2461 5.67188C39.5169 5.67188 38.8268 5.80859 38.1758 6.08203C37.5378 6.34245 36.9779 6.72656 36.4961 7.23438C36.0273 7.72917 35.6562 8.32812 35.3828 9.03125C35.1094 9.72135 34.9727 10.4961 34.9727 11.3555C34.9727 12.1628 35.1094 12.9115 35.3828 13.6016C35.6562 14.2917 36.0273 14.8906 36.4961 15.3984C36.9779 15.9062 37.5378 16.3099 38.1758 16.6094C38.8268 16.8958 39.5169 17.0391 40.2461 17.0391C40.9753 17.0391 41.6589 16.9023 42.2969 16.6289C42.9479 16.3555 43.5143 15.9714 43.9961 15.4766C44.4779 14.9818 44.8555 14.3828 45.1289 13.6797C45.4154 12.9766 45.5586 12.2018 45.5586 11.3555ZM74.0938 11.3555C74.0938 12.918 73.8138 14.3763 73.2539 15.7305C72.694 17.0716 71.9323 18.237 70.9688 19.2266C70.0052 20.2031 68.8724 20.9779 67.5703 21.5508C66.2812 22.1107 64.8945 22.3906 63.4102 22.3906C61.9388 22.3906 60.5521 22.1107 59.25 21.5508C57.9609 20.9779 56.8281 20.2031 55.8516 19.2266C54.888 18.237 54.1263 17.0716 53.5664 15.7305C53.0065 14.3763 52.7266 12.918 52.7266 11.3555C52.7266 9.76693 53.0065 8.29557 53.5664 6.94141C54.1263 5.58724 54.888 4.42188 55.8516 3.44531C56.8281 2.45573 57.9609 1.68099 59.25 1.12109C60.5521 0.561198 61.9388 0.28125 63.4102 0.28125C64.8945 0.28125 66.2812 0.548177 67.5703 1.08203C68.8724 1.60286 70.0052 2.35156 70.9688 3.32812C71.9323 4.29167 72.694 5.45703 73.2539 6.82422C73.8138 8.17839 74.0938 9.6888 74.0938 11.3555ZM68.7227 11.3555C68.7227 10.4961 68.5794 9.72135 68.293 9.03125C68.0195 8.32812 67.6419 7.72917 67.1602 7.23438C66.6784 6.72656 66.112 6.34245 65.4609 6.08203C64.8229 5.80859 64.1393 5.67188 63.4102 5.67188C62.681 5.67188 61.9909 5.80859 61.3398 6.08203C60.7018 6.34245 60.1419 6.72656 59.6602 7.23438C59.1914 7.72917 58.8203 8.32812 58.5469 9.03125C58.2734 9.72135 58.1367 10.4961 58.1367 11.3555C58.1367 12.1628 58.2734 12.9115 58.5469 13.6016C58.8203 14.2917 59.1914 14.8906 59.6602 15.3984C60.1419 15.9062 60.7018 16.3099 61.3398 16.6094C61.9909 16.8958 62.681 17.0391 63.4102 17.0391C64.1393 17.0391 64.8229 16.9023 65.4609 16.6289C66.112 16.3555 66.6784 15.9714 67.1602 15.4766C67.6419 14.9818 68.0195 14.3828 68.293 13.6797C68.5794 12.9766 68.7227 12.2018 68.7227 11.3555ZM91.9258 11.3555C91.9258 10.6263 91.7826 9.92318 91.4961 9.24609C91.2227 8.55599 90.8451 7.95052 90.3633 7.42969C89.8815 6.89583 89.3151 6.47266 88.6641 6.16016C88.026 5.83464 87.3424 5.67188 86.6133 5.67188C85.8841 5.67188 85.194 5.79557 84.543 6.04297C83.9049 6.29036 83.3451 6.65495 82.8633 7.13672C82.3945 7.61849 82.0234 8.21745 81.75 8.93359C81.4766 9.63672 81.3398 10.444 81.3398 11.3555C81.3398 12.2279 81.4766 13.0156 81.75 13.7188C82.0234 14.4089 82.3945 15.0013 82.8633 15.4961C83.3451 15.9909 83.9049 16.375 84.543 16.6484C85.194 16.9089 85.8841 17.0391 86.6133 17.0391C87.3424 17.0391 88.026 16.8828 88.6641 16.5703C89.3151 16.2448 89.8815 15.8216 90.3633 15.3008C90.8451 14.7669 91.2227 14.1615 91.4961 13.4844C91.7826 12.7943 91.9258 12.0846 91.9258 11.3555ZM97.2969 19.3633C97.2969 20.8346 97.0169 22.2148 96.457 23.5039C95.8971 24.793 95.1289 25.9193 94.1523 26.8828C93.1888 27.8464 92.056 28.6081 90.7539 29.168C89.4648 29.7279 88.0846 30.0078 86.6133 30.0078L83.9375 29.9688V24.6367L86.5742 24.6758C87.4076 24.6758 88.1172 24.5651 88.7031 24.3438C89.2891 24.1354 89.7839 23.8424 90.1875 23.4648C90.5911 23.1003 90.9102 22.6771 91.1445 22.1953C91.3919 21.7135 91.5872 21.2057 91.7305 20.6719C91.5221 21.0104 91.2227 21.2904 90.832 21.5117C90.4414 21.7201 90.0052 21.8893 89.5234 22.0195C89.0547 22.1628 88.5599 22.2604 88.0391 22.3125C87.5312 22.3646 87.056 22.3906 86.6133 22.3906C85.1419 22.3906 83.7552 22.1367 82.4531 21.6289C81.1641 21.1211 80.0312 20.3984 79.0547 19.4609C78.0911 18.5104 77.3294 17.3516 76.7695 15.9844C76.2096 14.6172 75.9297 13.0742 75.9297 11.3555C75.9297 9.77995 76.2096 8.3151 76.7695 6.96094C77.3294 5.60677 78.0911 4.4349 79.0547 3.44531C80.0312 2.45573 81.1641 1.68099 82.4531 1.12109C83.7552 0.561198 85.1419 0.28125 86.6133 0.28125C87.2904 0.28125 87.9609 0.365885 88.625 0.535156C89.2891 0.704427 89.9336 0.938802 90.5586 1.23828C91.1836 1.53776 91.776 1.88932 92.3359 2.29297C92.9089 2.69661 93.4427 3.13281 93.9375 3.60156L96.0078 1.12109H97.2969V19.3633ZM121.594 11.3555C121.594 12.918 121.314 14.3763 120.754 15.7305C120.194 17.0716 119.432 18.237 118.469 19.2266C117.505 20.2031 116.372 20.9779 115.07 21.5508C113.781 22.1107 112.395 22.3906 110.91 22.3906C109.439 22.3906 108.052 22.1107 106.75 21.5508C105.461 20.9779 104.328 20.2031 103.352 19.2266C102.388 18.237 101.626 17.0716 101.066 15.7305C100.507 14.3763 100.227 12.918 100.227 11.3555C100.227 9.76693 100.507 8.29557 101.066 6.94141C101.626 5.58724 102.388 4.42188 103.352 3.44531C104.328 2.45573 105.461 1.68099 106.75 1.12109C108.052 0.561198 109.439 0.28125 110.91 0.28125C112.395 0.28125 113.781 0.548177 115.07 1.08203C116.372 1.60286 117.505 2.35156 118.469 3.32812C119.432 4.29167 120.194 5.45703 120.754 6.82422C121.314 8.17839 121.594 9.6888 121.594 11.3555ZM116.223 11.3555C116.223 10.4961 116.079 9.72135 115.793 9.03125C115.52 8.32812 115.142 7.72917 114.66 7.23438C114.178 6.72656 113.612 6.34245 112.961 6.08203C112.323 5.80859 111.639 5.67188 110.91 5.67188C110.181 5.67188 109.491 5.80859 108.84 6.08203C108.202 6.34245 107.642 6.72656 107.16 7.23438C106.691 7.72917 106.32 8.32812 106.047 9.03125C105.773 9.72135 105.637 10.4961 105.637 11.3555C105.637 12.1628 105.773 12.9115 106.047 13.6016C106.32 14.2917 106.691 14.8906 107.16 15.3984C107.642 15.9062 108.202 16.3099 108.84 16.6094C109.491 16.8958 110.181 17.0391 110.91 17.0391C111.639 17.0391 112.323 16.9023 112.961 16.6289C113.612 16.3555 114.178 15.9714 114.66 15.4766C115.142 14.9818 115.52 14.3828 115.793 13.6797C116.079 12.9766 116.223 12.2018 116.223 11.3555ZM142.941 22H136.418L132.258 15.5938L128.059 22H121.535L129.172 11.2773L121.535 0.964844H128.059L132.258 6.96094L136.418 0.964844H142.941L135.285 11.2773L142.941 22Z" fill="#FF0202"/>
</svg>
