<svg width="173" height="217" viewBox="0 0 173 217" fill="none" xmlns="http://www.w3.org/2000/svg">
<path d="M146.569 217H26.4306C11.8505 217 0 205.935 0 192.322V53.2302C0 39.6172 11.8505 28.5526 26.4306 28.5526H146.569C161.149 28.5526 173 39.6172 173 53.2302V192.322C173 205.935 161.149 217 146.569 217Z" fill="#FB5252"/>
<path d="M38.4444 28.5526H26.4306C11.8505 28.5526 0 39.6172 0 53.2302V192.322C0 205.935 11.8505 217 26.4306 217H86.5V55.4737H55.2639C45.9892 55.4737 38.4444 48.4293 38.4444 39.7697V28.5526Z" fill="#FD9898"/>
<path d="M136.958 94.9375H36.0415C32.0625 94.9375 28.8332 91.8995 28.8332 88.1562C28.8332 84.413 32.0625 81.375 36.0415 81.375H136.958C140.937 81.375 144.167 84.413 144.167 88.1562C144.167 91.8995 140.937 94.9375 136.958 94.9375Z" fill="white"/>
<path d="M120.235 58.4231H52.7652C42.7485 58.4231 34.6002 50.7794 34.6002 41.383V26.7773C34.6002 22.7461 38.0879 19.4744 42.3852 19.4744H59.0244C62.4394 8.24742 73.4526 3.1668e-05 86.5002 3.1668e-05C99.5479 3.1668e-05 110.561 8.24742 113.966 19.4744H130.615C134.913 19.4744 138.4 22.7461 138.4 26.7773V41.383C138.4 50.7794 130.252 58.4231 120.235 58.4231Z" fill="#F20000"/>
<path d="M86.5 0C71.2777 0 58.429 8.24739 54.457 19.4744H35.0325C30.019 19.4744 25.95 22.746 25.95 26.7772V29.2115V41.383C25.95 50.7794 35.4564 58.4231 47.1425 58.4231H86.5V0Z" fill="#FF7676"/>
<path d="M136.958 122.062H36.0415C32.0625 122.062 28.8332 119.024 28.8332 115.281C28.8332 111.538 32.0625 108.5 36.0415 108.5H136.958C140.937 108.5 144.167 111.538 144.167 115.281C144.167 119.024 140.937 122.062 136.958 122.062Z" fill="white"/>
<path d="M136.958 149.187H36.0415C32.0625 149.187 28.8332 146.149 28.8332 142.406C28.8332 138.663 32.0625 135.625 36.0415 135.625H136.958C140.937 135.625 144.167 138.663 144.167 142.406C144.167 146.149 140.937 149.187 136.958 149.187Z" fill="white"/>
<path d="M136.958 176.312H36.0415C32.0625 176.312 28.8332 173.274 28.8332 169.531C28.8332 165.788 32.0625 162.75 36.0415 162.75H136.958C140.937 162.75 144.167 165.788 144.167 169.531C144.167 173.274 140.937 176.312 136.958 176.312Z" fill="white"/>
</svg>
