<svg width="114" height="108" viewBox="0 0 114 108" fill="none" xmlns="http://www.w3.org/2000/svg">
<path d="M64.8621 79.6722L1.96558 8.85254L33.4139 108L64.8621 79.6722Z" fill="#FFFDC2"/>
<path d="M80.5863 72.5902L112.035 58.4263L1.96558 8.85254L80.5863 72.5902Z" fill="#FFFDC2"/>
<path d="M112.821 49.7508L2.75172 0.177049H2.55517L2.35862 0C2.16207 0 1.96552 0 1.96552 0C1.76897 0 1.76897 0 1.57241 0C1.37586 0 1.37586 0 1.17931 0.177049H0.982759C0.982759 0.177049 0.982759 0.177049 0.786207 0.177049L0.589655 0.354098L0.393104 0.531148V0.708197C0.393104 0.885246 0.196552 0.885246 0.196552 1.0623C0.196552 1.23934 0.196552 1.23934 0.196552 1.41639C4.39327e-08 1.59344 0 1.77049 0 1.77049C0 1.94754 0 1.94754 0 2.12459V2.30164L31.4483 101.449C31.6448 101.98 32.2345 102.511 32.8241 102.689C33.0207 102.689 33.2172 102.689 33.4138 102.689C34.0034 102.689 34.3966 102.511 34.7897 102.157L56.6069 82.5049L70.9552 101.98C71.1517 102.157 71.1517 102.334 71.3483 102.334C71.3483 102.334 71.3483 102.334 71.5448 102.334C71.7414 102.334 71.7414 102.511 71.9379 102.511H72.1345C72.331 102.511 72.5276 102.511 72.7241 102.511C72.7241 102.511 72.7241 102.511 72.9207 102.511C73.1172 102.511 73.3138 102.511 73.3138 102.511C73.3138 102.511 73.5104 102.511 73.5104 102.334C73.5104 102.334 73.7069 102.334 73.7069 102.157C73.9035 101.98 73.9035 101.98 74.1 101.803C74.1 101.803 74.1 101.626 74.2966 101.626C74.4931 101.449 74.4931 101.272 74.4931 101.095L82.1586 66.5705L112.821 52.7607C113.41 52.4066 114 51.8754 114 51.1672C114 50.459 113.607 50.1049 112.821 49.7508ZM72.5276 92.7738L66.8276 72.2361C66.8276 72.059 66.631 71.882 66.631 71.7049V71.5279L18.4759 17.5279L78.4241 66.0393L72.5276 92.7738ZM34.3966 97.5541L6.48621 9.7377L62.1103 72.4131L34.3966 97.5541ZM63.8793 76.1311L68.2035 91.5344L59.7517 80.0262L63.8793 76.1311ZM80.9793 63.3836L14.1517 9.20656L107.71 51.3443L80.9793 63.3836Z" fill="#322153"/>
<path d="M3.93106 43.9082C3.73451 43.023 2.5552 42.3148 1.57244 42.6689C0.589682 42.8459 -0.196524 43.9082 0.196579 44.7935L8.05865 73.1213C8.05865 73.8295 9.04141 74.3607 9.82761 74.3607C10.0242 74.3607 10.2207 74.3607 10.2207 74.3607C11.2035 74.1836 11.9897 73.1213 11.5966 72.2361L3.93106 43.9082Z" fill="#322153"/>
<path d="M34.2 0.177061C33.2172 -0.177037 32.0379 0.177061 31.6448 0.885258C31.2517 1.7705 31.6448 2.8328 32.431 3.1869L48.1552 10.2689C48.5483 10.623 48.7448 10.623 49.1379 10.623C49.9241 10.623 50.5138 10.2689 50.9069 9.56067C51.3 8.67542 50.9069 7.61313 50.1207 7.25903L34.2 0.177061Z" fill="#322153"/>
<path d="M94.9345 80.9115C95.3276 81.2656 95.9173 81.4427 96.3104 81.4427C96.7035 81.4427 97.2931 81.2656 97.6862 80.9115C98.4724 80.2033 98.4724 79.141 97.6862 78.4328L89.8242 71.3508C89.038 70.6427 87.8587 70.6427 87.0724 71.3508C86.2862 72.059 86.2862 73.1213 87.0724 73.8295L94.9345 80.9115Z" fill="#322153"/>
<path d="M87.0724 87.9934L94.9345 95.0754C95.3276 95.4295 95.9173 95.6065 96.3104 95.6065C96.7035 95.6065 97.2931 95.4295 97.6862 95.0754C98.4724 94.3672 98.4724 93.3049 97.6862 92.5967L89.8242 85.5147C89.038 84.8065 87.8587 84.8065 87.0724 85.5147C86.2862 86.2229 86.2862 87.2852 87.0724 87.9934Z" fill="#322153"/>
<path d="M97.6862 64.2689C96.9 63.5607 95.7207 63.5607 94.9345 64.2689C94.1483 64.9771 94.1483 66.0394 94.9345 66.7476L110.659 80.9115C111.052 81.2656 111.641 81.4427 112.035 81.4427C112.428 81.4427 113.017 81.2656 113.41 80.9115C114.197 80.2033 114.197 79.141 113.41 78.4328L97.6862 64.2689Z" fill="#322153"/>
</svg>
